<?xml version="1.0" encoding="utf-8"?>
<!-- Generator: Adobe Illustrator 16.0.0, SVG Export Plug-In . SVG Version: 6.00 Build 0)  -->
<!DOCTYPE svg PUBLIC "-//W3C//DTD SVG 1.1//EN" "http://www.w3.org/Graphics/SVG/1.1/DTD/svg11.dtd">
<svg version="1.1" id="Layer_1" xmlns="http://www.w3.org/2000/svg" xmlns:xlink="http://www.w3.org/1999/xlink" x="0px" y="0px"
	 width="240px" height="47px" viewBox="0 0 240 47" enable-background="new 0 0 240 47" xml:space="preserve">
<g>
	<path fill-rule="evenodd" clip-rule="evenodd" d="M172.13,18.78c0.79-0.71,1.46-1.45,2.18-2.06c0.95-0.79,2.19-0.92,3.31-1.06
		c1.94-0.15,3.9-0.29,5.81,0.34c1.22,0.36,2.05,1.17,2.53,2.43c0.43,1.18,0.09,2.08-0.6,2.94c-0.69,0.85-1.64,1.38-2.64,1.64
		c-1.53,0.45-3.09,0.86-4.74,1.28c0.5,0.04,0.9,0.07,1.3,0.07c3.03,0.04,5.16,1.6,6.15,4.49c0.1,0.39,0.25,0.72,0.38,1.12
		c0.21,0.62,0.62,0.9,1.27,0.77c0.63-0.1,0.75-0.55,0.8-1.11c0.03-0.51,0.15-1,0.28-1.46c0.06-0.16,0.36-0.35,0.48-0.32
		c0.18,0.04,0.45,0.28,0.46,0.41c0.03,0.41,0.04,0.91-0.13,1.26c-0.31,0.64-0.66,1.2-1.13,1.65c-1.89,1.8-3.95,3.25-6.68,3.31
		c-2.83,0.16-5.25-1.78-5.73-4.74c-0.15-1.09-0.42-2.07-0.66-3.14c-0.15-0.68-0.55-1.16-1.38-1.18c-1.13-0.02-1.31-0.03-1.28,1.17
		c0.04,1.18-0.02,2.47,0.03,3.65c0.01,0.35,0.12,0.65,0.3,0.93c0.06,0.14,0.39,0.23,0.55,0.17c0.16-0.02,0.38-0.24,0.39-0.44
		c0.05-0.49,0.02-0.96,0.04-1.49c0.01-0.35,0.18-0.75,0.6-0.6c0.26,0.03,0.57,0.28,0.69,0.55c0.09,0.19-0.02,0.58-0.14,0.82
		c-0.55,1.46-1.63,2.49-2.97,3.26c-1.9,1.03-3.94,1.45-6.07,0.71c-2.33-0.82-3.12-1.98-3.5-4.62c-0.05-0.36-0.01-0.73-0.01-1.14
		c0-7.74,0-15.49,0-23.22c0-0.53,0.03-1.03-0.03-1.49c-0.05-0.65-0.46-0.89-1.05-0.85c-0.54,0.06-0.52,0.46-0.55,0.86
		c-0.1,0.63-0.21,1.19-0.37,1.8c-0.03,0.11-0.26,0.27-0.32,0.23c-0.2,0-0.5-0.19-0.53-0.3c-0.07-0.49-0.2-1.08,0.02-1.47
		c0.51-0.74,1.1-1.56,1.84-2.08c2.22-1.77,4.82-2.11,7.54-1.74c2.06,0.31,3.48,2.19,3.53,4.47c0.06,2.24,0.02,4.41,0.02,6.57
		C172.14,13.72,172.13,16.25,172.13,18.78z M173.14,19.12c-1.01,1.64-1.1,3.44-0.91,5.24c0.01,0.12,0.5,0.32,0.65,0.22
		c0.25-0.14,0.46-0.45,0.55-0.69C174.06,22.28,173.82,20.71,173.14,19.12z"/>
	<path fill-rule="evenodd" clip-rule="evenodd" d="M85.49,31.1c-0.2,0.41-0.33,0.64-0.46,0.87c-1.28,2.11-3.03,2.85-5.37,2.49
		c-4.89-0.77-6.81-4.49-7.15-8.39c-0.23-2.63,0.35-5.08,1.92-7.31c1.53-2.1,3.47-3.16,6.08-3.16c1.94-0.04,3.49,0.5,4.74,2.41
		c0-0.81,0-1.29,0-1.84c0-3.36,0.01-6.73-0.01-10.09c-0.01-0.81-0.16-1.7-0.36-2.46c-0.08-0.32-0.45-0.6-0.76-0.76
		c-0.39-0.1-0.79,0.01-0.83,0.58c-0.03,0.45,0.01,0.9-0.05,1.34C83.22,5.05,83.16,5.33,83,5.51c-0.15,0.22-0.47,0.28-0.71,0.27
		c-0.14,0-0.33-0.27-0.38-0.46c-0.14-0.78,0.04-1.58,0.56-2.2c1.56-1.83,3.51-2.92,5.92-3c0.89,0,1.81-0.05,2.67,0.11
		c2.31,0.5,3.75,2.34,3.92,4.83c0.04,0.46,0.01,0.99,0.01,1.52c0,7.69,0,15.47,0,23.18c0,0.49-0.01,1.05,0.12,1.53
		c0.08,0.26,0.41,0.62,0.67,0.65c0.23,0.03,0.53-0.38,0.73-0.62c0.12-0.15,0.07-0.45,0.14-0.65c0.12-0.25,0.24-0.61,0.45-0.85
		c0.16-0.14,0.64-0.3,0.67-0.27c0.19,0.24,0.38,0.63,0.34,0.86c-0.03,0.31-0.25,0.67-0.47,0.9c-2.14,2.38-5.17,3.95-8.99,2.81
		c-1.19-0.33-1.94-1.25-2.66-2.18C85.82,31.74,85.7,31.49,85.49,31.1z M84.47,18.33c-0.83,2.28-0.5,4.46-0.52,6.65
		c-0.02,2.09-0.29,4.32,0.69,6.58C85.57,27.72,85.48,20.63,84.47,18.33z"/>
	<path fill-rule="evenodd" clip-rule="evenodd" d="M6.57,33.79c-3.16-1.38-5.39-3.38-6.2-6.52c-0.84-3.14-0.26-5.96,1.97-8.37
		c2.3-2.5,5.23-3.49,8.52-3.62c0.56-0.04,1.12,0.04,1.67-0.04c1-0.1,1.71-0.72,1.92-1.62c0.24-0.95-0.2-1.62-0.94-2.12
		c-0.46-0.35-0.97-0.57-1.47-0.85c-1.16-0.64-1.72-1.58-1.55-2.7c0.18-1.09,1.38-2.24,2.49-2.46c0.9-0.1,1.74-0.01,2.55,0.54
		c2.76,1.83,3.16,5.22,0.78,7.58c-0.65,0.66-1.42,1.26-2.18,1.9c0.49,0.16,1.07,0.37,1.67,0.54c2.92,0.95,4.93,2.91,6.13,5.75
		c0.81,1.96,0.81,4.01,0.05,6c-0.78,2.13-2.02,3.88-3.99,5.03c-1.72,0.95-3.56,1.56-5.54,1.62c-1.6,0.09-3.24,0-4.84,0.02
		c-0.82,0.04-1.63,0.25-2.43,0.43c0.02,0.72,0.45,0.9,0.9,0.9c0.98,0,1.9,0,2.87,0c1.56,0,3.13,0,4.69,0c1.73,0,3.39,0.32,5.05,0.9
		c2.92,1.12,3.93,4.12,3.4,6.3c-0.17,0.86-0.54,1.6-0.93,2.34c-0.71,1.23-2.12,1.9-3.24,1.55c-0.28-0.09-0.64-0.41-0.64-0.62
		c0-0.22,0.36-0.6,0.64-0.62c0.68-0.2,1.39-0.29,2.11-0.43c0.68-0.09,0.97-0.66,1-1.14c0.02-0.66-0.55-0.98-1.12-1.1
		c-0.42-0.1-0.88-0.06-1.33-0.06c-3.02-0.01-6.03,0.05-9.04-0.03c-1.45-0.04-2.9-0.14-4.33-0.36c-1-0.17-1.89-0.67-2.63-1.35
		c-0.92-0.84-1.16-2.69-0.64-4.06c0.56-1.65,1.79-2.52,3.35-2.99C5.64,34.02,5.95,34.01,6.57,33.79z M10.45,25.03
		c0.11,2.5,0.23,5.17,0.39,7.76c0.02,0.21,0.07,0.42,0.17,0.62c0.02,0.13,0.17,0.2,0.22,0.18c0.15-0.03,0.34-0.05,0.41-0.21
		c0.09-0.17,0.15-0.41,0.15-0.62c0.11-1.54,0.34-3.09,0.33-4.63c-0.06-3.77-0.22-7.5-0.33-11.21c0-0.2-0.03-0.39-0.11-0.49
		c-0.1-0.16-0.23-0.32-0.36-0.31c-0.13,0.01-0.31,0.15-0.36,0.34c-0.07,0.19-0.1,0.42-0.12,0.64
		C10.69,19.69,10.56,22.34,10.45,25.03z"/>
	<path fill-rule="evenodd" clip-rule="evenodd" d="M214.65,18.97c0.66-0.68,1.27-1.35,1.87-2.02c1.88-2.09,6.78-1.95,8.69,0.99
		c0.48,0.79,0.61,1.68,0.59,2.6c-0.03,3.07,0,6.12-0.01,9.21c-0.01,0.83,0.08,1.57,0.77,2.25c0.46-0.21,0.75-0.46,0.87-1.04
		c0.05-0.31,0.08-0.69,0.26-0.97c0.15-0.23,0.46-0.47,0.71-0.47c0.39-0.02,0.65,0.59,0.5,1.02c-0.05,0.13-0.1,0.33-0.22,0.45
		c-1.89,2.57-5.69,4.1-8.72,3.29c-2.02-0.5-4-2.75-3.93-5.21c0.05-2.4,0.01-4.78,0.01-7.19c0-0.44,0.03-0.82-0.01-1.18
		c-0.03-0.39,0.16-0.92-0.41-0.87c-0.21,0.01-0.49,0.53-0.54,0.9c-0.15,1.23-0.3,2.5-0.33,3.82c-0.04,1.85-0.1,3.82,0.01,5.66
		c0.13,2.23-0.79,3.6-3.27,4.15c-1.88,0.38-3.76,0.26-5.31-1.21c-0.83-0.72-1.25-1.62-1.23-2.77c0.05-3.22,0.02-6.44,0.01-9.62
		c0-0.4,0.01-0.77-0.01-1.14c-0.02-0.65-0.31-0.93-0.93-0.95c-0.61-0.02-0.94,0.27-1.01,0.87c-0.03,0.32,0,0.68-0.05,0.99
		c-0.05,0.45-0.28,0.75-0.74,0.71c-0.42-0.03-0.69-0.59-0.49-1.06c0.26-0.58,0.52-1.23,0.96-1.72c2.17-2.42,4.89-3.32,8.01-2.8
		c1.53,0.26,2.77,1.08,3.5,2.61C214.31,18.52,214.49,18.73,214.65,18.97z"/>
	<path fill-rule="evenodd" clip-rule="evenodd" d="M109.75,17.74c0,3.96-0.01,7.97,0.01,11.96c0,0.44,0,0.92,0.16,1.3
		c0.1,0.28,0.46,0.54,0.71,0.56c0.24,0.02,0.59-0.24,0.75-0.5c0.19-0.37,0.26-0.76,0.34-1.11c0.04-0.21,0-0.45,0.04-0.67
		c0.13-0.67,0.52-0.94,0.88-0.75c0.46,0.27,0.56,0.64,0.36,1.15c-0.41,0.95-1.01,1.85-1.84,2.52c-2.12,1.78-4.58,2.27-7.22,1.9
		c-1.88-0.31-3.28-1.38-3.84-3.25c-0.27-0.9-0.39-1.87-0.4-2.82c-0.03-7.62-0.01-15.24-0.02-22.86c0-0.58-0.11-1.24-0.24-1.8
		c-0.11-0.45-0.49-0.58-0.92-0.53c-0.43,0.1-0.43,0.4-0.5,0.79c-0.1,0.64-0.22,1.28-0.38,1.91c-0.04,0.17-0.38,0.28-0.54,0.23
		c-0.16-0.04-0.37-0.28-0.4-0.43c-0.07-0.58-0.06-1.2,0.32-1.73c1.73-2.56,4.19-3.52,7.12-3.59c0.7-0.02,1.46,0.07,2.13,0.26
		c1.57,0.44,2.59,1.53,3.05,3.06c0.28,0.89,0.42,1.88,0.43,2.82C109.78,9.99,109.75,13.85,109.75,17.74z"/>
	<path fill-rule="evenodd" clip-rule="evenodd" d="M35.56,15.47c2.37-0.05,4.57,0.52,6.53,1.72c2.88,1.79,4.72,4.41,4.57,7.85
		c-0.18,3.37-1.67,6.1-4.71,7.83c-2.84,1.54-5.8,1.98-9.02,1.38c-2.49-0.45-4.64-1.5-6.39-3.33c-3.14-3.33-3.24-8.34-0.22-11.84
		C27.78,17.4,29.7,16.5,31.8,16C33.02,15.66,34.29,15.61,35.56,15.47z M35.27,16.13c-0.11,0.6-0.28,1.16-0.28,1.72
		c-0.03,4.76-0.02,9.6-0.02,14.37c0,0.28-0.04,0.62,0.07,0.88c0.07,0.22,0.3,0.36,0.46,0.54c0.13-0.14,0.33-0.29,0.41-0.51
		c0.06-0.2,0.04-0.44,0.04-0.66c0-4.95,0-9.89,0-14.86C35.94,17.04,35.94,16.5,35.27,16.13z"/>
	<path fill-rule="evenodd" clip-rule="evenodd" d="M59.68,15.47c2.37-0.05,4.57,0.53,6.55,1.71c2.89,1.8,4.7,4.42,4.57,7.85
		c-0.15,3.37-1.66,6.08-4.69,7.82c-2.83,1.56-5.8,2-9.01,1.39c-2.5-0.45-4.64-1.48-6.4-3.32c-3.23-3.42-3.25-8.55-0.12-11.95
		c1.44-1.58,3.31-2.47,5.33-2.96C57.15,15.67,58.42,15.61,59.68,15.47z M59.77,16.1c-0.12,0-0.23,0-0.35,0
		c-0.1,0.63-0.29,1.17-0.29,1.75c-0.04,4.81-0.03,9.65-0.01,14.4c0,0.51-0.25,1.33,0.54,1.31c0.58,0,0.41-0.82,0.41-1.31
		c0.01-4.75,0.01-9.59,0-14.4C60.08,17.27,59.88,16.73,59.77,16.1z"/>
	<path fill-rule="evenodd" clip-rule="evenodd" d="M124.77,15.47c2.36-0.05,4.58,0.52,6.56,1.72c2.85,1.79,4.71,4.41,4.52,7.84
		c-0.16,3.37-1.63,6.1-4.7,7.83c-2.83,1.54-5.8,1.98-8.98,1.38c-2.52-0.45-4.67-1.5-6.4-3.34c-3.16-3.33-3.25-8.34-0.21-11.84
		c1.45-1.66,3.36-2.56,5.45-3.06C122.21,15.66,123.51,15.61,124.77,15.47z M124.84,16.11c-0.13,0-0.21,0.01-0.34,0.01
		c-0.09,0.56-0.3,1.05-0.3,1.58c-0.02,4.86-0.02,9.75-0.01,14.58c0,0.49-0.17,1.28,0.43,1.28c0.75,0,0.51-0.83,0.51-1.34
		c0.02-4.75,0.02-9.6,0-14.37C125.13,17.25,124.93,16.73,124.84,16.11z"/>
	<path fill-rule="evenodd" clip-rule="evenodd" d="M148.8,15.6c2.42-0.18,4.64,0.36,6.61,1.58c2.94,1.8,4.78,4.48,4.58,8
		c-0.18,3.23-1.63,6.01-4.66,7.63c-4.89,2.57-9.71,2.37-14.27-0.81c-2.06-1.47-3.28-3.59-3.49-6.24c-0.44-5.45,3.17-8.56,7.49-9.77
		c0.49-0.16,0.99-0.33,1.48-0.37C147.28,15.6,148.1,15.6,148.8,15.6z M149,16.1c-0.15,0-0.23,0-0.38,0
		c-0.07,0.62-0.27,1.18-0.27,1.74c-0.01,4.83-0.01,9.66,0,14.42c0,0.49-0.18,1.3,0.43,1.3c0.75,0.01,0.5-0.81,0.51-1.33
		c0.02-4.75,0.02-9.59,0-14.39C149.26,17.27,149.07,16.73,149,16.1z"/>
	<path fill-rule="evenodd" clip-rule="evenodd" d="M190.56,25.2c0-1.5,0.04-2.92-0.02-4.41c-0.04-0.56-0.28-1.15-0.48-1.73
		c-0.07-0.13-0.38-0.32-0.53-0.32c-0.23,0.09-0.47,0.31-0.54,0.53c-0.13,0.25-0.07,0.59-0.08,0.81c-0.02,0.29,0.08,0.64-0.06,0.88
		c-0.11,0.25-0.42,0.45-0.63,0.67c-0.23-0.29-0.68-0.64-0.63-0.86c0.12-0.69,0.29-1.44,0.71-1.99c0.94-1.16,2.03-2.21,3.46-2.77
		c1.47-0.63,4.65-0.61,6.01,0.22c1.6,0.93,2.55,2.29,2.54,4.19c0,2.62-0.03,5.29,0.03,7.93c0.03,0.96,0.19,1.97,0.34,2.98
		c0.02,0.17,0.24,0.4,0.42,0.43c0.16,0.02,0.44-0.2,0.49-0.32c0.18-0.33,0.26-0.75,0.35-1.1c0.06-0.36,0-0.7,0.09-1.02
		c0.19-0.45,0.59-0.68,1.08-0.45c0.42,0.2,0.47,0.45,0.38,0.93c-0.38,1.71-1.5,2.82-2.82,3.63c-2.25,1.49-4.76,1.5-7.21,0.61
		c-1.95-0.67-2.82-2.26-2.89-4.27C190.49,28.18,190.56,26.69,190.56,25.2C190.56,25.2,190.56,25.2,190.56,25.2z"/>
	<path fill-rule="evenodd" clip-rule="evenodd" d="M200.31,9.54c0.25,3.21-2.78,5.38-5.25,5.39c-3.19,0-5.58-2.93-5.49-5.45
		c0.13-3.05,2.4-5.33,5.49-5.33C197.51,4.12,200.78,6.4,200.31,9.54z"/>
</g>
<g>
	<path d="M231.28,5.29c0-0.83,0.19-1.6,0.57-2.32c0.38-0.71,0.91-1.27,1.59-1.68c0.68-0.41,1.41-0.61,2.2-0.61
		c0.79,0,1.52,0.21,2.19,0.61c0.68,0.41,1.21,0.97,1.59,1.68c0.38,0.71,0.57,1.48,0.57,2.32c0,0.81-0.18,1.57-0.55,2.28
		c-0.37,0.71-0.89,1.28-1.57,1.71c-0.68,0.43-1.42,0.64-2.23,0.64c-0.81,0-1.55-0.21-2.23-0.64c-0.68-0.43-1.2-0.99-1.58-1.7
		C231.46,6.88,231.28,6.11,231.28,5.29z M231.99,5.29c0,0.71,0.16,1.36,0.49,1.96c0.33,0.6,0.77,1.07,1.34,1.42
		c0.56,0.34,1.17,0.51,1.83,0.51c0.66,0,1.27-0.17,1.84-0.52c0.57-0.35,1.01-0.82,1.33-1.42c0.32-0.6,0.48-1.25,0.48-1.95
		c0-0.7-0.16-1.35-0.48-1.95c-0.32-0.59-0.76-1.06-1.33-1.41c-0.57-0.34-1.18-0.52-1.84-0.52c-0.66,0-1.27,0.17-1.83,0.51
		c-0.57,0.34-1.01,0.81-1.34,1.41C232.15,3.94,231.99,4.59,231.99,5.29z M234.74,5.76v2.09h-0.87V2.6h1.7c0.63,0,1.11,0.13,1.46,0.4
		c0.35,0.27,0.52,0.66,0.52,1.18c0,0.51-0.26,0.89-0.79,1.16c0.5,0.21,0.75,0.63,0.76,1.26v0.38c0,0.35,0.04,0.61,0.1,0.76v0.1
		h-0.89c-0.06-0.15-0.09-0.41-0.09-0.79c0-0.38-0.01-0.61-0.02-0.68c-0.07-0.4-0.33-0.6-0.81-0.62H234.74z M234.74,4.97h0.96
		c0.29-0.01,0.53-0.08,0.71-0.21c0.18-0.14,0.27-0.31,0.27-0.54c0-0.3-0.08-0.51-0.24-0.64c-0.16-0.13-0.45-0.19-0.85-0.19h-0.85
		V4.97z"/>
</g>
</svg>
